<svg width="70" height="70" viewBox="0 0 70 70" fill="none" xmlns="http://www.w3.org/2000/svg">
<path d="M44.1808 27.1788L32.4236 40.3486L26.4573 34.3829C26.0491 33.9747 25.3881 33.9747 24.9799 34.3829C24.5718 34.791 24.5718 35.452 24.9799 35.8602L31.7278 42.6081C31.9235 42.8045 32.1896 42.9138 32.4668 42.9138C32.4766 42.9138 32.4863 42.9138 32.4961 42.9131C32.7837 42.9048 33.0547 42.7794 33.2462 42.5649L45.7403 28.5704C46.1248 28.14 46.0872 27.4797 45.6568 27.0952C45.2249 26.7114 44.566 26.7491 44.1808 27.1788Z" fill="white"/>
<path d="M64.1319 34.8259C64.1514 34.7465 64.1646 34.6643 64.1646 34.5786C64.1646 31.7939 61.2761 30.3549 58.7269 29.0845C56.9173 28.1832 55.0472 27.2506 54.5492 26.0755C54.0421 24.8761 54.7581 22.9217 55.4491 21.0307C56.4131 18.3957 57.4091 15.6716 55.571 13.8349C53.7684 12.0323 51.1328 12.6425 48.5828 13.2352C46.7983 13.649 44.9519 14.0759 43.7225 13.5563C42.5224 13.0486 41.525 11.4744 40.5603 9.95045C39.161 7.74319 37.5764 5.2406 34.8259 5.2406C32.0705 5.2406 30.5158 7.79752 29.1451 10.0542C28.1937 11.6207 27.2095 13.2394 26.0108 13.7465C24.7856 14.2654 22.9196 13.7952 21.1156 13.3418C18.5455 12.6968 15.8883 12.0268 14.0815 13.8356C12.2559 15.6605 13.1405 18.3985 13.9972 21.0474C14.6088 22.937 15.2405 24.8914 14.7293 26.1013C14.2306 27.2812 12.4433 28.2055 10.7138 29.0998C8.2642 30.3661 5.48718 31.8016 5.48718 34.58C5.48718 34.6664 5.50111 34.7493 5.52062 34.8294C5.50111 34.9088 5.48788 34.9909 5.48788 35.0766C5.48788 37.855 8.26489 39.2906 10.7152 40.5568C12.4433 41.4505 14.2313 42.3747 14.73 43.5546C15.2412 44.7645 14.6095 46.7189 13.9979 48.6093C13.1419 51.2574 12.2566 53.9947 14.0815 55.8203C15.8897 57.6292 18.5469 56.9612 21.1163 56.3141C22.921 55.8614 24.7877 55.3926 26.0122 55.9109C27.2102 56.4172 28.1943 58.0359 29.1458 59.6017C30.5172 61.8577 32.0712 64.4146 34.8266 64.4146C37.5771 64.4146 39.1624 61.912 40.561 59.7048C41.5264 58.1808 42.5238 56.6067 43.7218 56.0989C44.956 55.5779 46.799 56.0056 48.5828 56.42C51.1314 57.0113 53.7684 57.6243 55.5696 55.821C57.4098 53.9836 56.4131 51.2588 55.4491 48.6246C54.7574 46.7335 54.0421 44.7791 54.5485 43.5811C55.0472 42.4054 56.9173 41.4727 58.7269 40.5714C61.2754 39.3017 64.1646 37.862 64.1646 35.0773C64.1653 34.9889 64.1514 34.906 64.1319 34.8259ZM57.7956 38.6985C55.6469 39.7691 53.425 40.8765 52.6247 42.7648C51.7979 44.722 52.6567 47.07 53.487 49.3399C54.2587 51.451 54.9887 53.4466 54.0923 54.3409C53.1109 55.3244 51.1397 54.8668 49.055 54.3834C46.946 53.8944 44.7652 53.3881 42.9083 54.173C41.1078 54.935 39.9328 56.7906 38.796 58.5848C37.5778 60.5072 36.4272 62.323 34.8266 62.323C33.2462 62.323 32.122 60.473 30.931 58.5144C29.8075 56.6652 28.645 54.7525 26.8257 53.9843C24.9555 53.1916 22.7455 53.7475 20.6058 54.2859C18.5093 54.8117 16.5291 55.3118 15.5588 54.3409C14.6373 53.4201 15.2921 51.3946 15.9851 49.25C16.7143 46.9968 17.4673 44.6663 16.6537 42.739C15.8611 40.864 13.7326 39.7635 11.6743 38.6985C9.56738 37.6099 7.57674 36.5811 7.57674 35.0745C7.57674 34.9882 7.5628 34.9053 7.5433 34.8245C7.5628 34.7451 7.57604 34.6629 7.57604 34.5772C7.57604 33.0707 9.56599 32.0419 11.673 30.9532C13.7319 29.889 15.8611 28.7885 16.6531 26.912C17.4666 24.9855 16.7136 22.6556 15.9844 20.4017C15.2914 18.2571 14.6359 16.2316 15.5588 15.3102C16.527 14.3399 18.5072 14.8386 20.6051 15.3659C22.7434 15.9029 24.9535 16.4608 26.8243 15.6682C28.6436 14.8992 29.8061 12.9866 30.931 11.1373C32.1213 9.17801 33.2455 7.32806 34.8259 7.32806C36.4265 7.32806 37.5771 9.14388 38.7946 11.067C39.9321 12.8612 41.1071 14.7167 42.9083 15.4794C44.7652 16.2644 46.946 15.758 49.055 15.2684C51.1397 14.785 53.1102 14.3274 54.093 15.3115C54.988 16.2052 54.258 18.2 53.4863 20.3118C52.656 22.5825 51.7972 24.9305 52.6247 26.8884C53.4236 28.7759 55.6462 29.8834 57.7949 30.9539C59.9959 32.0503 62.075 33.0867 62.075 34.5772C62.075 34.6636 62.089 34.7465 62.1085 34.8266C62.089 34.906 62.0757 34.9882 62.0757 35.0738C62.0757 36.5665 59.9966 37.6022 57.7956 38.6985Z" fill="white"/>
</svg>
