<svg width="70" height="70" viewBox="0 0 70 70" fill="none" xmlns="http://www.w3.org/2000/svg">
<path d="M64.8019 36.7327H59.6039V28.0693C59.6039 27.7936 59.4944 27.5291 59.2994 27.3342C59.1045 27.1392 58.84 27.0297 58.5643 27.0297H42.2772V18.3663C42.2772 18.0906 42.1677 17.8262 41.9727 17.6312C41.7777 17.4363 41.5133 17.3267 41.2376 17.3267H5.89104C5.61532 17.3267 5.3509 17.4363 5.15593 17.6312C4.96097 17.8262 4.85144 18.0906 4.85144 18.3663V50.9406C4.85144 51.2163 4.96097 51.4807 5.15593 51.6757C5.3509 51.8707 5.61532 51.9802 5.89104 51.9802H13.8059C13.9474 53.2792 14.5637 54.4803 15.5365 55.3528C16.5092 56.2254 17.7699 56.7079 19.0767 56.7079C20.3834 56.7079 21.6442 56.2254 22.6169 55.3528C23.5897 54.4803 24.206 53.2792 24.3475 51.9802H47.6C47.7416 53.281 48.3586 54.4837 49.3327 55.3575C50.3067 56.2312 51.5692 56.7145 52.8777 56.7145C54.1862 56.7145 55.4486 56.2312 56.4227 55.3575C57.3967 54.4837 58.0138 53.281 58.1554 51.9802H64.8019C65.0777 51.9802 65.3421 51.8707 65.537 51.6757C65.732 51.4807 65.8415 51.2163 65.8415 50.9406V37.7723C65.8415 37.4965 65.732 37.2321 65.537 37.0372C65.3421 36.8422 65.0777 36.7327 64.8019 36.7327ZM19.0594 54.6416C18.4197 54.6443 17.7936 54.4571 17.2606 54.1035C16.7275 53.75 16.3113 53.2462 16.065 52.6559C15.8186 52.0655 15.7531 51.4154 15.8767 50.7878C16.0003 50.1602 16.3075 49.5834 16.7593 49.1306C17.2111 48.6778 17.7872 48.3694 18.4146 48.2444C19.0419 48.1195 19.6922 48.1836 20.283 48.4287C20.8739 48.6738 21.3786 49.0888 21.7333 49.6212C22.088 50.1535 22.2766 50.7791 22.2752 51.4188C22.2735 52.267 21.9381 53.0805 21.3416 53.6835C20.745 54.2865 19.9352 54.6306 19.0871 54.6416H19.0594ZM19.0594 46.1099C17.9213 46.117 16.8156 46.4891 15.9048 47.1716C14.9941 47.854 14.3264 48.8107 14 49.901H6.93065V19.4059H40.198V49.901H24.1604C23.8342 48.8079 23.1647 47.8489 22.2509 47.1661C21.3372 46.4833 20.2278 46.1129 19.0871 46.1099H19.0594ZM52.8742 54.6416C52.2351 54.6416 51.6104 54.452 51.0792 54.0968C50.5479 53.7416 50.1339 53.2368 49.8897 52.6462C49.6455 52.0557 49.5819 51.4059 49.7071 50.7792C49.8323 50.1525 50.1406 49.5771 50.5929 49.1257C51.0453 48.6743 51.6214 48.3672 52.2484 48.2434C52.8753 48.1195 53.525 48.1845 54.115 48.43C54.705 48.6755 55.2089 49.0906 55.563 49.6226C55.917 50.1546 56.1053 50.7797 56.1039 51.4188C56.1021 52.2742 55.761 53.0939 55.1555 53.6981C54.55 54.3023 53.7296 54.6416 52.8742 54.6416ZM63.7623 49.901H57.9613C57.6291 48.8155 56.9572 47.8653 56.0446 47.1902C55.1319 46.5151 54.0267 46.1508 52.8915 46.1508C51.7564 46.1508 50.6511 46.5151 49.7385 47.1902C48.8259 47.8653 48.154 48.8155 47.8217 49.901H42.2772V29.1089H57.5247V37.7723C57.5247 38.048 57.6342 38.3124 57.8292 38.5074C58.0242 38.7023 58.2886 38.8119 58.5643 38.8119H63.7623V49.901Z" fill="white"/>
<path d="M36.3862 8.93593H57.5248L54.0594 12.4013C53.9573 12.4965 53.8754 12.6112 53.8185 12.7388C53.7617 12.8663 53.7312 13.0039 53.7287 13.1435C53.7262 13.2831 53.7519 13.4218 53.8042 13.5512C53.8565 13.6807 53.9343 13.7983 54.033 13.897C54.1318 13.9957 54.2493 14.0735 54.3788 14.1258C54.5082 14.1781 54.6469 14.2038 54.7865 14.2013C54.9261 14.1988 55.0637 14.1683 55.1913 14.1115C55.3188 14.0547 55.4336 13.9727 55.5287 13.8706L60.1931 9.20623C60.3878 9.0113 60.4971 8.74707 60.4971 8.47158C60.4971 8.19608 60.3878 7.93185 60.1931 7.73692L55.5287 3.07257C55.4304 2.97609 55.3141 2.89992 55.1864 2.8484C55.0586 2.79689 54.922 2.77104 54.7843 2.77232C54.6466 2.77361 54.5104 2.80201 54.3837 2.85591C54.2569 2.9098 54.142 2.98813 54.0456 3.08643C53.9491 3.18473 53.8729 3.30106 53.8214 3.42879C53.7699 3.55653 53.744 3.69316 53.7453 3.83088C53.7466 3.96861 53.775 4.10473 53.8289 4.23148C53.8828 4.35823 53.9611 4.47312 54.0594 4.5696L56.3466 6.85673H36.3862C36.1104 6.85673 35.846 6.96625 35.6511 7.16122C35.4561 7.35618 35.3466 7.62061 35.3466 7.89633C35.3466 8.17205 35.4561 8.43648 35.6511 8.63144C35.846 8.8264 36.1104 8.93593 36.3862 8.93593Z" fill="white"/>
</svg>
