<svg width="70" height="70" viewBox="0 0 70 70" fill="none" xmlns="http://www.w3.org/2000/svg">
<path d="M63.3674 37.4258C62.9132 36.7829 62.2585 36.3089 61.5059 36.0781C60.7534 35.8473 59.9455 35.8728 59.209 36.1505C59.1528 35.5505 58.9428 34.9752 58.5991 34.4802C58.0621 33.7148 57.2447 33.1922 56.3246 33.0261C55.4044 32.86 54.4559 33.0637 53.6852 33.5931L53.103 33.9743C53.0358 33.4069 52.8312 32.8645 52.507 32.3941C51.9641 31.6271 51.1401 31.1057 50.2146 30.9435C49.289 30.7812 48.3368 30.9912 47.5654 31.5277L47.5169 31.5693C42.8317 35.5059 37.1486 39.505 35.6931 39.505C34.6189 39.505 31.3337 37.6683 28.7001 36.1921C25.3456 34.3139 22.1713 32.5396 20.3832 32.3941C16.9595 32.1307 6.52183 38.1951 5.35747 38.8881C5.24325 38.955 5.14332 39.0438 5.06339 39.1493C4.98346 39.2548 4.9251 39.375 4.89163 39.5031C4.85817 39.6312 4.85025 39.7646 4.86835 39.8957C4.88644 40.0268 4.93018 40.1531 4.99708 40.2673C5.06397 40.3816 5.15271 40.4815 5.25823 40.5614C5.36374 40.6413 5.48397 40.6997 5.61204 40.7332C5.74011 40.7666 5.87352 40.7746 6.00465 40.7565C6.13578 40.7384 6.26206 40.6946 6.37629 40.6277C10.6248 38.1327 18.1585 34.2723 20.2377 34.3901C21.6238 34.4941 24.8743 36.3238 27.7505 37.9386C31.5486 40.0663 33.9882 41.404 35.5199 41.4871C35.5867 41.4938 35.654 41.4938 35.7208 41.4871H42.6515C43.2581 41.4871 43.8399 41.7281 44.2688 42.157C44.6977 42.5859 44.9387 43.1677 44.9387 43.7743C44.9387 44.3809 44.6977 44.9626 44.2688 45.3915C43.8399 45.8204 43.2581 46.0614 42.6515 46.0614H42.5822C42.5129 46.0614 35.7555 46.5327 32.9763 46.0614C30.3634 45.6248 27.0298 42.6654 26.9951 42.6376C26.7966 42.4593 26.5354 42.3672 26.2689 42.3815C26.0025 42.3958 25.7526 42.5154 25.5743 42.7139C25.396 42.9124 25.3039 43.1736 25.3182 43.4401C25.3325 43.7065 25.452 43.9564 25.6505 44.1347C25.803 44.2733 29.4555 47.5168 32.6436 48.0505C33.9852 48.2271 35.3382 48.3036 36.6911 48.2792C39.5674 48.2792 42.5337 48.0713 42.7208 48.0574C43.7815 47.939 44.7601 47.43 45.4662 46.6297C46.1723 45.8294 46.5552 44.7949 46.5405 43.7278C46.5258 42.6606 46.1145 41.6371 45.3867 40.8565C44.6588 40.0759 43.6666 39.5942 42.603 39.505H40.2466C43.1939 37.5685 46.0264 35.4627 48.7298 33.198C48.9787 33.0263 49.2729 32.9321 49.5753 32.9274C49.8777 32.9226 50.1748 33.0075 50.429 33.1713C50.6833 33.3351 50.8833 33.5705 51.004 33.8479C51.1246 34.1252 51.1605 34.432 51.107 34.7297C51.0726 34.9284 50.9992 35.1183 50.8909 35.2884C50.7827 35.4586 50.6417 35.6055 50.4763 35.7208L50.407 35.7762L50.3307 35.8386L50.2684 35.9149L50.206 35.998L50.1644 36.0812L50.1159 36.1713C50.1159 36.1713 50.1159 36.2267 50.1159 36.2614C50.1143 36.2937 50.1143 36.3261 50.1159 36.3584C50.1159 36.3584 50.1159 36.4208 50.1159 36.4485C50.1141 36.4832 50.1141 36.5179 50.1159 36.5525C50.1159 36.5525 50.1159 36.6149 50.1159 36.6495C50.1143 36.6818 50.1143 36.7142 50.1159 36.7465C50.1143 36.7789 50.1143 36.8112 50.1159 36.8436C50.1159 36.8436 50.1159 36.906 50.1159 36.9337C50.1303 36.9669 50.1465 36.9993 50.1644 37.0307L50.1991 37.1L50.2337 37.1416C50.2672 37.1862 50.3042 37.2279 50.3446 37.2663L50.407 37.3149L50.5317 37.398L50.5941 37.4258L50.7466 37.4812H50.802C50.8734 37.4889 50.9455 37.4889 51.0169 37.4812C51.0989 37.4797 51.1803 37.468 51.2595 37.4465H51.3218C51.4025 37.4195 51.4793 37.3822 51.5505 37.3357L54.7595 35.2564C55.0932 35.0224 55.5061 34.9304 55.9077 35.0006C56.3092 35.0707 56.6665 35.2974 56.901 35.6307C57.0167 35.7954 57.0988 35.9813 57.1426 36.1777C57.1864 36.3742 57.1911 36.5773 57.1563 36.7756C57.1216 36.9738 57.0481 37.1633 56.9401 37.3331C56.832 37.503 56.6916 37.6498 56.5268 37.7654L55.4941 38.4584C55.3799 38.5376 55.2824 38.6385 55.2071 38.7554C55.1319 38.8722 55.0805 39.0028 55.0557 39.1395C55.0309 39.2763 55.0333 39.4166 55.0627 39.5524C55.0922 39.6883 55.1481 39.817 55.2273 39.9312C55.3065 40.0454 55.4074 40.1429 55.5242 40.2182C55.6411 40.2934 55.7716 40.3449 55.9084 40.3696C56.0452 40.3944 56.1855 40.392 56.3213 40.3626C56.4571 40.3331 56.5858 40.2772 56.7 40.198L57.7189 39.505L59.604 38.2366C59.7682 38.1044 59.9579 38.0075 60.1612 37.952C60.3646 37.8964 60.5772 37.8835 60.7858 37.9139C60.9944 37.9443 61.1945 38.0175 61.3735 38.1288C61.5526 38.2401 61.7067 38.3871 61.8262 38.5607C61.9458 38.7344 62.0283 38.9308 62.0684 39.1377C62.1086 39.3447 62.1056 39.5577 62.0596 39.7634C62.0137 39.9692 61.9257 40.1632 61.8013 40.3334C61.677 40.5036 61.5188 40.6462 61.3367 40.7525C50.407 48.4248 38.008 56.3812 36.1783 56.402C34.7921 56.402 31.8258 54.6139 29.1783 53.0406C26.1911 51.2594 23.3773 49.5753 21.3882 49.3188C17.4238 48.7921 11.2971 53.3663 10.6109 53.9208C10.3996 54.0835 10.2614 54.3235 10.227 54.588C10.1926 54.8525 10.2646 55.1198 10.4273 55.3312C10.59 55.5426 10.8299 55.6807 11.0944 55.7151C11.3589 55.7496 11.6263 55.6775 11.8377 55.5149C13.5149 54.2258 18.4496 50.9545 21.1248 51.3079C22.705 51.5159 25.5951 53.2416 28.1525 54.7733C31.2991 56.6515 34.2723 58.4188 36.1783 58.4188C39.5119 58.4188 58.6822 45.0772 62.5149 42.402L62.605 42.3258C63.3467 41.7703 63.8417 40.9467 63.9842 40.031C64.1266 39.1154 63.9053 38.1803 63.3674 37.4258Z" fill="white"/>
<path d="M27.7851 18.9554C29.2346 18.9568 30.6519 18.5282 31.8577 17.7237C33.0635 16.9193 34.0035 15.7752 34.5588 14.4363C35.1142 13.0975 35.2598 11.6239 34.9774 10.2022C34.6949 8.78052 33.9971 7.47456 32.9721 6.44962C31.9472 5.42468 30.6412 4.72683 29.2195 4.44438C27.7978 4.16194 26.3243 4.3076 24.9854 4.86292C23.6465 5.41825 22.5025 6.35828 21.698 7.56406C20.8936 8.76983 20.4649 10.1871 20.4663 11.6366C20.47 13.5766 21.2422 15.436 22.614 16.8078C23.9857 18.1795 25.8452 18.9518 27.7851 18.9554ZM27.7851 6.32079C28.8351 6.32079 29.8616 6.63215 30.7346 7.2155C31.6076 7.79885 32.2881 8.62799 32.6899 9.59807C33.0917 10.5681 33.1969 11.6356 32.992 12.6654C32.7872 13.6952 32.2816 14.6412 31.5391 15.3837C30.7966 16.1261 29.8507 16.6318 28.8208 16.8366C27.791 17.0414 26.7236 16.9363 25.7535 16.5345C24.7834 16.1327 23.9543 15.4522 23.3709 14.5792C22.7876 13.7061 22.4762 12.6797 22.4762 11.6297C22.478 10.2222 23.038 8.87297 24.0332 7.87776C25.0284 6.88254 26.3777 6.32262 27.7851 6.32079Z" fill="white"/>
<path d="M45.8951 17.2644C47.0081 17.2644 48.0962 16.9343 49.0217 16.3159C49.9471 15.6975 50.6684 14.8186 51.0944 13.7903C51.5203 12.7619 51.6318 11.6304 51.4146 10.5387C51.1975 9.44705 50.6615 8.44429 49.8745 7.65724C49.0874 6.87018 48.0846 6.3342 46.993 6.11705C45.9013 5.8999 44.7698 6.01135 43.7414 6.4373C42.7131 6.86325 41.8342 7.58457 41.2158 8.51004C40.5974 9.43552 40.2673 10.5236 40.2673 11.6366C40.2692 13.1286 40.8627 14.559 41.9177 15.614C42.9727 16.669 44.4031 17.2625 45.8951 17.2644ZM45.8951 8.02575C46.6089 8.02712 47.3064 8.24005 47.8993 8.63766C48.4922 9.03526 48.9539 9.59968 49.2261 10.2596C49.4984 10.9195 49.5689 11.6453 49.4288 12.3453C49.2887 13.0453 48.9442 13.6881 48.439 14.1924C47.9337 14.6967 47.2903 15.0399 46.59 15.1786C45.8898 15.3174 45.1641 15.2455 44.5047 14.972C43.8453 14.6985 43.2818 14.2357 42.8853 13.642C42.4888 13.0484 42.2772 12.3505 42.2772 11.6366C42.2772 10.6771 42.6584 9.75692 43.3369 9.07845C44.0153 8.39998 44.9356 8.01881 45.8951 8.01881V8.02575Z" fill="white"/>
<path d="M29.2476 27.3069C29.2476 28.7558 29.6772 30.1722 30.4822 31.3769C31.2871 32.5816 32.4313 33.5206 33.7699 34.075C35.1085 34.6295 36.5814 34.7746 38.0025 34.4919C39.4235 34.2093 40.7289 33.5115 41.7534 32.487C42.7779 31.4625 43.4756 30.1572 43.7583 28.7361C44.0409 27.3151 43.8959 25.8421 43.3414 24.5035C42.7869 23.1649 41.848 22.0208 40.6433 21.2158C39.4386 20.4108 38.0222 19.9812 36.5733 19.9812C34.631 19.983 32.7687 20.7554 31.3952 22.1289C30.0218 23.5023 29.2494 25.3646 29.2476 27.3069ZM36.5733 21.998C37.6233 21.998 38.6497 22.3094 39.5228 22.8927C40.3958 23.4761 41.0763 24.3052 41.4781 25.2753C41.8799 26.2454 41.985 27.3128 41.7802 28.3427C41.5754 29.3725 41.0697 30.3184 40.3273 31.0609C39.5848 31.8034 38.6388 32.309 37.609 32.5138C36.5792 32.7187 35.5117 32.6136 34.5417 32.2117C33.5716 31.8099 32.7425 31.1295 32.1591 30.2564C31.5758 29.3834 31.2644 28.3569 31.2644 27.3069C31.2662 25.8995 31.8261 24.5502 32.8214 23.555C33.8166 22.5598 35.1659 21.9999 36.5733 21.998Z" fill="white"/>
</svg>
