<svg width="235" height="288" viewBox="0 0 235 288" fill="none" xmlns="http://www.w3.org/2000/svg">
<path d="M72.5045 150.077V137.577C69.367 124.9 64.5831 119.381 50.0045 112.577C50.0045 112.577 50.0045 65.5774 50.0045 65.0774C50.0045 64.5775 53.5045 65.0774 54.5045 65.0774C55.5045 65.0774 56.5045 52.5774 55.0045 50.5774C53.5045 48.5775 22.0045 48.5774 22.0045 50.5774C22.0045 52.5774 22.0045 63.0774 22.0045 64.0774C22.0045 65.0774 25.5045 65.0774 26.0045 65.0774C26.5045 65.0775 26.0045 112.577 26.0045 112.577C14.3435 117.811 3.00448 133.077 3.00448 137.577C3.00448 142.077 3.50448 283.077 3.00448 283.577C2.50448 284.078 44.0045 283.577 44.0045 283.577M164.504 150.077C164.504 150.077 164.504 146.077 164.504 138.577C164.504 131.077 173.565 117.953 186.004 112.577C186.004 112.577 186.504 64.5774 186.004 64.0774C185.504 63.5775 181.504 64.5775 181.504 64.0774C181.504 63.5774 181.004 51.0774 181.504 50.5774C182.004 50.0775 213.867 50.0775 214.004 50.5774C214.142 51.0774 214.004 63.5774 214.004 64.0774C214.004 64.5775 210.504 63.5775 210.504 64.0774C210.504 64.5774 210.504 112.577 210.504 112.577C223.351 118.039 229.004 124.577 232.004 137.577C232.004 137.577 232.004 282.578 232.004 283.577C232.004 284.577 188.254 283.577 188.254 283.577M44.0045 283.577H85.0045L104.004 272.077V246.077C104.004 246.077 57.5045 191.577 57.0045 191.077C56.5045 190.578 172.004 190.578 171.504 191.077C171.004 191.577 126.004 246.077 126.004 246.077V272.077L144.504 283.577H188.254M44.0045 283.577L60.5045 267.077V254.077C46.1605 246.523 40.5442 238.942 34.5045 220.077C33.4442 213.56 33.1974 210.058 34.5045 204.577C39.4652 191.824 41.5056 186.286 44.0045 179.077C44.0045 179.077 43.0045 158.577 44.0045 158.577C45.0045 158.577 95.5045 157.578 95.5045 158.577C95.5045 159.577 95.5045 181.077 95.5045 181.077M132.004 181.077C132.004 181.077 132.004 159.578 132.004 158.577C132.004 157.577 186.004 157.078 186.004 158.577C186.004 160.077 186.004 179.077 186.004 179.077C187.539 189.082 189.289 194.665 194.004 204.577C194.625 211.129 194.665 214.537 194.004 220.077C187.994 237.53 181.984 244.523 168.504 254.077V267.077L188.254 283.577M89.0045 245.077L78.0045 254.077V267.077L84.0045 273.577M139.504 246.077L151.004 254.077V267.077L145.504 272.077M82.5044 150.077C82.5044 150.077 82.5044 95.5773 82.5044 91.5773C82.5044 87.5773 93.487 70.4329 105.504 66.0773C105.504 66.0773 108.004 20.5773 105.504 20.5773C103.004 20.5773 101.004 20.0773 101.004 19.0773C101.004 18.0773 101.004 4.57735 101.004 3.57735C101.004 2.57735 132.504 3.07736 133.504 3.57735C134.504 4.07733 133.504 18.0773 133.504 19.0773C133.504 20.0773 130.004 20.5773 129.004 20.5773C128.004 20.5773 129.004 67.0773 129.004 67.0773C143.989 71.2126 152.504 85.5773 152.504 91.5773C152.504 97.5773 152.504 150.077 152.504 150.077" stroke="#D32B82" stroke-width="6"/>
</svg>
