<svg width="50" height="50" viewBox="0 0 50 50" fill="none" xmlns="http://www.w3.org/2000/svg">
<path d="M20.9689 36.083C24.6658 36.083 27.6737 33.0751 27.6737 29.3781C27.6737 25.6811 24.6658 22.6732 20.9689 22.6732C17.272 22.6732 14.2642 25.6811 14.2642 29.3781C14.2642 33.0751 17.272 36.083 20.9689 36.083ZM20.9689 24.168C23.8418 24.168 26.179 26.5052 26.179 29.3781C26.179 32.251 23.8418 34.5883 20.9689 34.5883C18.0961 34.5883 15.7589 32.251 15.7589 29.3781C15.7589 26.5052 18.0961 24.168 20.9689 24.168Z" fill="#D32B82"/>
<path d="M6.91776 36.0829C7.3308 36.0829 7.66512 35.7481 7.66512 35.3355V23.42C7.66512 23.0069 7.3308 22.6726 6.91776 22.6726C6.50473 22.6726 6.17041 23.0069 6.17041 23.42V35.3355C6.17041 35.7481 6.50473 36.0829 6.91776 36.0829Z" fill="#D32B82"/>
<path d="M34.7942 36.0829C35.2068 36.0829 35.5416 35.7481 35.5416 35.3355V23.42C35.5416 23.0069 35.2068 22.6726 34.7942 22.6726C34.3817 22.6726 34.0469 23.0069 34.0469 23.42V35.3355C34.0469 35.7481 34.3817 36.0829 34.7942 36.0829Z" fill="#D32B82"/>
<path d="M46.5851 10.1149H11.45C11.0369 10.1149 10.7026 10.4492 10.7026 10.8622V14.3828H7.5159C7.10287 14.3828 6.76855 14.7172 6.76855 15.1302V19.0484H3.23954C2.8265 19.0484 2.49219 19.3827 2.49219 19.7958V38.9608C2.49219 39.3734 2.8265 39.7082 3.23954 39.7082H38.3757C38.7882 39.7082 39.123 39.3734 39.123 38.9608V35.0436H42.6515C43.0641 35.0436 43.3989 34.7088 43.3989 34.2962V30.7741H46.5851C46.9976 30.7741 47.3325 30.4393 47.3325 30.0268V10.8622C47.3325 10.4492 46.9976 10.1149 46.5851 10.1149ZM37.6283 38.214H3.9869V20.5432H37.6283V38.214ZM41.9042 33.5489H39.123V19.7958C39.123 19.3827 38.7882 19.0484 38.3757 19.0484H8.26326V15.8776H41.9047V33.5489H41.9042ZM45.8377 29.2794H43.3989V15.1302C43.3989 14.7172 43.0641 14.3828 42.6515 14.3828H12.1973V11.6096H45.8377V29.2794Z" fill="#D32B82"/>
</svg>
