<svg width="70" height="70" viewBox="0 0 70 70" fill="none" xmlns="http://www.w3.org/2000/svg">
<path d="M65.3772 19.5861L54.4267 17.1465C55.4019 16.2747 56.0571 15.1014 56.2879 13.8139C56.5187 12.5263 56.3118 11.1985 55.7001 10.0422C55.0885 8.88595 54.1074 7.96771 52.9131 7.43393C51.7189 6.90015 50.3804 6.78155 49.1109 7.09703C46.4564 7.7901 42.5406 12.6416 41.4525 14.0277C41.0643 12.3158 39.5812 6.23763 37.4604 4.50496C36.445 3.68091 35.183 3.22041 33.8755 3.19684C32.568 3.17327 31.2903 3.58799 30.2458 4.3749C29.2014 5.16182 28.4504 6.27566 28.1124 7.53894C27.7745 8.80223 27.8691 10.1423 28.3812 11.3456L16.398 8.67723C16.2647 8.6476 16.1268 8.64452 15.9923 8.6682C15.8577 8.69187 15.7292 8.74182 15.614 8.8152C15.4988 8.88857 15.3991 8.98394 15.3208 9.09583C15.2425 9.20773 15.1869 9.33397 15.1574 9.46733L12.9465 19.4059C12.9169 19.5393 12.9138 19.6772 12.9375 19.8117C12.9612 19.9462 13.0111 20.0748 13.0845 20.19C13.1579 20.3052 13.2532 20.4048 13.3651 20.4832C13.477 20.5615 13.6033 20.617 13.7366 20.6465L58.9109 30.703V56.1386H36.0396V30.1485C36.0396 29.8728 35.9301 29.6084 35.7351 29.4134C35.5401 29.2184 35.2757 29.1089 35 29.1089C34.7243 29.1089 34.4598 29.2184 34.2649 29.4134C34.0699 29.6084 33.9604 29.8728 33.9604 30.1485V56.1386H11.0891V28.4158H25.9901C26.2658 28.4158 26.5302 28.3063 26.7252 28.1114C26.9202 27.9164 27.0297 27.652 27.0297 27.3762C27.0297 27.1005 26.9202 26.8361 26.7252 26.6411C26.5302 26.4462 26.2658 26.3366 25.9901 26.3366H10.0495C9.77377 26.3366 9.50934 26.4462 9.31438 26.6411C9.11942 26.8361 9.00989 27.1005 9.00989 27.3762V57.1782C9.00989 57.4539 9.11942 57.7184 9.31438 57.9133C9.50934 58.1083 9.77377 58.2178 10.0495 58.2178H59.9505C60.2262 58.2178 60.4906 58.1083 60.6856 57.9133C60.8806 57.7184 60.9901 57.4539 60.9901 57.1782V31.1881L62.7089 31.5693C62.7849 31.5778 62.8616 31.5778 62.9376 31.5693C63.1732 31.5688 63.4016 31.4883 63.5855 31.341C63.7693 31.1936 63.8977 30.9882 63.9495 30.7584L66.1604 20.8337C66.1911 20.7003 66.1953 20.5622 66.1725 20.4273C66.1498 20.2923 66.1006 20.1632 66.0279 20.0473C65.9551 19.9314 65.8602 19.831 65.7485 19.7518C65.6369 19.6727 65.5107 19.6164 65.3772 19.5861ZM49.6099 9.1208C50.569 8.91279 51.5714 9.08623 52.4048 9.6044C53.2383 10.1226 53.8373 10.9448 54.0751 11.8969C54.3129 12.8491 54.1708 13.8564 53.6789 14.7056C53.187 15.5548 52.3839 16.1792 51.4396 16.4465H51.3703L43.5594 14.7277C45.3683 12.4753 48.1683 9.48119 49.6099 9.1208ZM31.3822 11.9762C30.6336 11.3352 30.1652 10.427 30.0769 9.44537C29.9887 8.46377 30.2876 7.48656 30.9099 6.72229C31.5321 5.95802 32.4285 5.46723 33.4076 5.35467C34.3867 5.24211 35.371 5.51669 36.1505 6.11981C37.301 7.06238 38.5624 10.9713 39.2485 13.7436L31.4376 12.0317L31.3822 11.9762ZM62.1475 29.303L15.199 18.8307L16.9594 10.9297L63.9079 21.3951L62.1475 29.303Z" fill="white"/>
</svg>
