<svg width="50" height="50" viewBox="0 0 50 50" fill="none" xmlns="http://www.w3.org/2000/svg">
<path d="M19.5546 13.3663C19.7515 13.3663 19.9404 13.2881 20.0797 13.1488C20.2189 13.0096 20.2972 12.8207 20.2972 12.6238V9.65346C20.2972 9.45652 20.2189 9.26764 20.0797 9.12838C19.9404 8.98912 19.7515 8.91089 19.5546 8.91089C19.3576 8.91089 19.1688 8.98912 19.0295 9.12838C18.8902 9.26764 18.812 9.45652 18.812 9.65346V12.6238C18.812 12.8207 18.8902 13.0096 19.0295 13.1488C19.1688 13.2881 19.3576 13.3663 19.5546 13.3663Z" fill="#D32B82"/>
<path d="M25.9901 13.3663C26.1871 13.3663 26.376 13.2881 26.5152 13.1488C26.6545 13.0096 26.7327 12.8207 26.7327 12.6238V9.65346C26.7327 9.45652 26.6545 9.26764 26.5152 9.12838C26.376 8.98912 26.1871 8.91089 25.9901 8.91089C25.7932 8.91089 25.6043 8.98912 25.4651 9.12838C25.3258 9.26764 25.2476 9.45652 25.2476 9.65346V12.6238C25.2476 12.8207 25.3258 13.0096 25.4651 13.1488C25.6043 13.2881 25.7932 13.3663 25.9901 13.3663Z" fill="#D32B82"/>
<path d="M18.812 24.505C18.812 24.7019 18.8902 24.8908 19.0295 25.0301C19.1688 25.1693 19.3576 25.2476 19.5546 25.2476C19.7515 25.2476 19.9404 25.1693 20.0797 25.0301C20.2189 24.8908 20.2972 24.7019 20.2972 24.505V21.5347C20.2972 21.3377 20.2189 21.1489 20.0797 21.0096C19.9404 20.8703 19.7515 20.7921 19.5546 20.7921C19.3576 20.7921 19.1688 20.8703 19.0295 21.0096C18.8902 21.1489 18.812 21.3377 18.812 21.5347V24.505Z" fill="#D32B82"/>
<path d="M25.2476 24.505C25.2476 24.7019 25.3258 24.8908 25.4651 25.0301C25.6043 25.1693 25.7932 25.2476 25.9901 25.2476C26.1871 25.2476 26.376 25.1693 26.5152 25.0301C26.6545 24.8908 26.7327 24.7019 26.7327 24.505V21.5347C26.7327 21.3377 26.6545 21.1489 26.5152 21.0096C26.376 20.8703 26.1871 20.7921 25.9901 20.7921C25.7932 20.7921 25.6043 20.8703 25.4651 21.0096C25.3258 21.1489 25.2476 21.3377 25.2476 21.5347V24.505Z" fill="#D32B82"/>
<path d="M18.812 36.3861C18.812 36.583 18.8902 36.7719 19.0295 36.9112C19.1688 37.0504 19.3576 37.1287 19.5546 37.1287C19.7515 37.1287 19.9404 37.0504 20.0797 36.9112C20.2189 36.7719 20.2972 36.583 20.2972 36.3861V33.4158C20.2972 33.2188 20.2189 33.03 20.0797 32.8907C19.9404 32.7515 19.7515 32.6732 19.5546 32.6732C19.3576 32.6732 19.1688 32.7515 19.0295 32.8907C18.8902 33.03 18.812 33.2188 18.812 33.4158V36.3861Z" fill="#D32B82"/>
<path d="M25.2476 36.3861C25.2476 36.583 25.3258 36.7719 25.4651 36.9112C25.6043 37.0504 25.7932 37.1287 25.9901 37.1287C26.1871 37.1287 26.376 37.0504 26.5152 36.9112C26.6545 36.7719 26.7327 36.583 26.7327 36.3861V33.4158C26.7327 33.2188 26.6545 33.03 26.5152 32.8907C26.376 32.7515 26.1871 32.6732 25.9901 32.6732C25.7932 32.6732 25.6043 32.7515 25.4651 32.8907C25.3258 33.03 25.2476 33.2188 25.2476 33.4158V36.3861Z" fill="#D32B82"/>
<path d="M7.67324 21.2871C7.4763 21.2871 7.28742 21.3653 7.14816 21.5046C7.0089 21.6439 6.93066 21.8327 6.93066 22.0297V25C6.93066 25.1969 7.0089 25.3858 7.14816 25.5251C7.28742 25.6643 7.4763 25.7426 7.67324 25.7426C7.87018 25.7426 8.05906 25.6643 8.19832 25.5251C8.33758 25.3858 8.41581 25.1969 8.41581 25V22.0297C8.41581 21.8327 8.33758 21.6439 8.19832 21.5046C8.05906 21.3653 7.87018 21.2871 7.67324 21.2871Z" fill="#D32B82"/>
<path d="M35.6436 25.9901V28.9604C35.6436 29.1574 35.7218 29.3463 35.861 29.4855C36.0003 29.6248 36.1892 29.703 36.3861 29.703C36.5831 29.703 36.7719 29.6248 36.9112 29.4855C37.0505 29.3463 37.1287 29.1574 37.1287 28.9604V25.9901C37.1287 25.7932 37.0505 25.6043 36.9112 25.4651C36.7719 25.3258 36.5831 25.2476 36.3861 25.2476C36.1892 25.2476 36.0003 25.3258 35.861 25.4651C35.7218 25.6043 35.6436 25.7932 35.6436 25.9901Z" fill="#D32B82"/>
<path d="M42.8217 25.2476C42.6247 25.2476 42.4359 25.3258 42.2966 25.4651C42.1573 25.6043 42.0791 25.7932 42.0791 25.9901V28.9604C42.0791 29.1574 42.1573 29.3463 42.2966 29.4855C42.4359 29.6248 42.6247 29.703 42.8217 29.703C43.0186 29.703 43.2075 29.6248 43.3468 29.4855C43.486 29.3463 43.5642 29.1574 43.5642 28.9604V25.9901C43.5642 25.7932 43.486 25.6043 43.3468 25.4651C43.2075 25.3258 43.0186 25.2476 42.8217 25.2476Z" fill="#D32B82"/>
<path d="M48.3117 19.6931L40.0047 10.8565C39.9359 10.7836 39.8531 10.7255 39.7612 10.6855C39.6693 10.6455 39.5703 10.6245 39.4701 10.6238C39.2693 10.6309 39.0778 10.71 38.9305 10.8466L31.683 18.3169V4.70302C31.683 4.50608 31.6047 4.3172 31.4655 4.17794C31.3262 4.03868 31.1373 3.96045 30.9404 3.96045H14.1087C13.9118 3.96045 13.7229 4.03868 13.5836 4.17794C13.4444 4.3172 13.3661 4.50608 13.3661 4.70302V14.8515H2.72255C2.52561 14.8515 2.33674 14.9298 2.19748 15.069C2.05822 15.2083 1.97998 15.3972 1.97998 15.5941V31.9307C1.97998 32.1277 2.05822 32.3166 2.19748 32.4558C2.33674 32.5951 2.52561 32.6733 2.72255 32.6733C2.9195 32.6733 3.10837 32.5951 3.24763 32.4558C3.38689 32.3166 3.46513 32.1277 3.46513 31.9307V16.3367H13.3661V26.4852C13.3661 26.6821 13.4444 26.871 13.5836 27.0103C13.7229 27.1495 13.9118 27.2278 14.1087 27.2278C14.3056 27.2278 14.4945 27.1495 14.6338 27.0103C14.773 26.871 14.8513 26.6821 14.8513 26.4852V5.4456H30.1978V42.0793H10.1483C9.95135 42.0793 9.76248 42.1575 9.62322 42.2968C9.48396 42.436 9.40572 42.6249 9.40572 42.8218C9.40572 43.0188 9.48396 43.2077 9.62322 43.3469C9.76248 43.4862 9.95135 43.5644 10.1483 43.5644H39.8513C40.0482 43.5644 40.2371 43.4862 40.3763 43.3469C40.5156 43.2077 40.5938 43.0188 40.5938 42.8218C40.5938 42.6249 40.5156 42.436 40.3763 42.2968C40.2371 42.1575 40.0482 42.0793 39.8513 42.0793H31.683V20.4208L39.4552 12.4406L47.0295 20.4951V30.9406C47.0295 31.1376 47.1077 31.3265 47.247 31.4657C47.3862 31.605 47.5751 31.6832 47.7721 31.6832C47.969 31.6832 48.1579 31.605 48.2971 31.4657C48.4364 31.3265 48.5146 31.1376 48.5146 30.9406V20.1981C48.5133 20.0101 48.4408 19.8297 48.3117 19.6931Z" fill="#D32B82"/>
</svg>
