<svg width="50" height="50" viewBox="0 0 50 50" fill="none" xmlns="http://www.w3.org/2000/svg">
<path d="M19.1929 23.437C18.5865 23.8356 17.8995 24.288 17.1387 24.8859C17.0485 24.9512 14.925 26.5047 14.0556 27.9546C13.1822 29.412 12.8982 31.802 12.8863 31.9032C12.8619 32.1149 12.9291 32.3272 13.0711 32.4861C13.2131 32.6451 13.4159 32.7363 13.6291 32.7363H22.951C23.3641 32.7363 23.6984 32.4014 23.6984 31.9889C23.6984 31.5763 23.3641 31.2415 22.951 31.2415H14.506C14.6475 30.5036 14.9106 29.4359 15.3376 28.7234C15.929 27.7374 17.4725 26.4917 18.04 26.0782C18.7734 25.5022 19.4325 25.0683 20.0145 24.6856C21.5381 23.6831 22.7413 22.8914 22.7413 20.8621C22.7413 18.1934 20.57 16.0221 17.9015 16.0221C15.2319 16.0221 13.0596 18.193 13.0596 20.8621C13.0596 21.2751 13.394 21.6094 13.807 21.6094C14.22 21.6094 14.5543 21.2751 14.5543 20.8621C14.5543 19.0175 16.056 17.5168 17.9015 17.5168C19.7459 17.5168 21.2466 19.0175 21.2466 20.8621C21.2466 22.0299 20.7528 22.4101 19.1929 23.437Z" fill="#D32B82"/>
<path d="M32.084 32.823C32.4965 32.823 32.8313 32.4882 32.8313 32.0756V28.552H35.0206C35.4331 28.552 35.7679 28.2172 35.7679 27.8046C35.7679 27.3921 35.4331 27.0573 35.0206 27.0573H32.8313V16.8567C32.8313 16.5253 32.6131 16.2339 32.2957 16.1402C31.9784 16.0465 31.6361 16.1731 31.4562 16.4511L24.3808 27.3986C24.2324 27.6288 24.2214 27.9212 24.3519 28.1614C24.4825 28.4015 24.7346 28.5515 25.0081 28.5515H31.3366V32.0751C31.3366 32.4882 31.6715 32.823 32.084 32.823ZM26.3812 27.0573L31.3366 19.3898V27.0573H26.3812Z" fill="#D32B82"/>
<path d="M49.0347 21.5816C48.7193 21.3155 48.247 21.3558 47.9819 21.6712L46.6691 23.2288C45.8032 11.2713 35.8047 1.80566 23.6304 1.80566C10.8896 1.80566 0.523926 12.1712 0.523926 24.9118C0.523926 37.653 10.8896 48.018 23.6304 48.018C31.7919 48.018 39.1897 43.8427 43.4186 36.8493C43.6324 36.4961 43.5193 36.0367 43.166 35.8229C42.8133 35.6087 42.3534 35.7223 42.1397 36.0755C38.1837 42.6175 31.2643 46.5233 23.6304 46.5233C11.7137 46.5233 2.01862 36.8284 2.01862 24.9118C2.01862 12.9953 11.7137 3.3004 23.6304 3.3004C35.0758 3.3004 44.4664 12.2449 45.1918 23.5103L43.5178 22.1122C43.1999 21.8471 42.7296 21.8905 42.465 22.2069C42.2005 22.5237 42.2428 22.9951 42.5592 23.2596L45.5321 25.7424C45.6721 25.859 45.842 25.9163 46.0109 25.9163C46.2237 25.9163 46.4354 25.8256 46.5824 25.6507L49.1244 22.6353C49.3904 22.3195 49.3506 21.8476 49.0347 21.5816Z" fill="#D32B82"/>
</svg>
