<svg width="50" height="54" viewBox="0 0 50 54" fill="none" xmlns="http://www.w3.org/2000/svg">
<path d="M28.7507 8.18692V5.71963H31.1442C31.6112 5.71963 32.0199 5.3271 32.0199 4.87851V0.841122C32.0199 0.392523 31.6112 0 31.1442 0H20.9282C20.4612 0 20.0525 0.392523 20.0525 0.841122V4.87851C20.0525 5.3271 20.4612 5.71963 20.9282 5.71963H23.3217V8.18692C17.6591 8.80374 12.6386 11.3271 8.84413 15.028L7.85172 14.0748L9.48628 12.5047C9.83654 12.1682 9.83654 11.6636 9.48628 11.3271L6.10041 8.07477C5.75015 7.73832 5.22475 7.73832 4.87449 8.07477L0.262697 12.3925C-0.0875657 12.729 -0.0875657 13.2336 0.262697 13.5701L3.64857 16.8224C3.8237 16.9907 4.05721 17.0467 4.29072 17.0467C4.52423 17.0467 4.75773 16.9907 4.93287 16.8224L6.6258 15.1963L7.73497 16.2617C4.23234 20.243 2.13076 25.4019 2.13076 31.0093C2.13076 43.6822 12.8722 54 26.0654 54C39.2586 54 50 43.6822 50 31.0093C49.9416 19.2336 40.6597 9.47664 28.7507 8.18692ZM4.29072 15.0841L2.13076 12.9533L5.39988 9.81308L7.55984 11.8879L6.27554 13.1215C6.10041 13.2897 5.8669 13.514 5.63339 13.7383L4.29072 15.0841ZM24.1973 4.03738H21.8039V1.68224H30.2685V4.03738H27.8751C27.4081 4.03738 26.9994 4.42991 26.9994 4.87851V8.07477C26.7075 8.07477 26.3573 8.07477 26.0654 8.07477C25.7735 8.07477 25.4232 8.07477 25.1314 8.07477V4.87851C25.073 4.37383 24.6643 4.03738 24.1973 4.03738ZM26.007 52.3178C13.8062 52.3178 3.8237 42.785 3.8237 31.0093C3.8237 19.2336 13.7478 9.70094 26.007 9.70094C26.474 9.70094 26.941 9.70093 27.4081 9.75701C27.6416 9.75701 27.8751 9.81308 28.1086 9.81308C39.3754 10.8224 48.1903 19.9626 48.1903 31.0093C48.1903 42.785 38.2662 52.3178 26.007 52.3178Z" fill="#D32B82"/>
<path d="M38.6165 17.215C38.5581 17.159 38.4997 17.1029 38.4413 17.0468C35.1138 14.2991 30.7939 12.673 26.0654 12.673C15.4991 12.673 6.97607 20.916 6.97607 31.0094C6.97607 41.1029 15.4991 49.4019 26.007 49.4019C36.5149 49.4019 45.0963 41.159 45.0963 31.0655C45.1547 25.5141 42.5861 20.5795 38.6165 17.215ZM26.007 47.7197C16.4332 47.7197 8.66901 40.2618 8.66901 31.0655C8.66901 21.8692 16.4332 14.4113 26.007 14.4113C30.035 14.4113 33.7128 15.7571 36.6316 17.944L27.1746 28.3739C26.8243 28.2618 26.4157 28.1496 26.0654 28.1496C24.4308 28.1496 23.0882 29.4393 23.0882 31.0094C23.0882 32.5795 24.4308 33.8692 26.0654 33.8692C27.7 33.8692 28.9842 32.5795 28.9842 31.0094C28.9842 30.4487 28.8091 29.8879 28.5172 29.4393L38.0327 18.9533C41.3602 21.9814 43.4034 26.2431 43.4034 31.0094C43.4034 40.2057 35.5809 47.7197 26.007 47.7197ZM27.2329 31.0094C27.2329 31.6823 26.7075 32.187 26.007 32.187C25.3065 32.187 24.7811 31.6823 24.7811 31.0094C24.7811 30.3926 25.3065 29.8319 26.007 29.8319C26.7075 29.8319 27.2329 30.3926 27.2329 31.0094Z" fill="#D32B82"/>
</svg>
