<svg width="70" height="70" viewBox="0 0 70 70" fill="none" xmlns="http://www.w3.org/2000/svg">
<path d="M55.099 16.6337H59.9505C60.2262 16.6337 60.4906 16.5241 60.6856 16.3292C60.8806 16.1342 60.9901 15.8698 60.9901 15.5941C60.9901 15.3183 60.8806 15.0539 60.6856 14.859C60.4906 14.664 60.2262 14.5545 59.9505 14.5545H53.0198C52.7441 14.5545 52.4796 14.664 52.2847 14.859C52.0897 15.0539 51.9802 15.3183 51.9802 15.5941V22.5248C51.9802 22.8005 52.0897 23.0649 52.2847 23.2599C52.4796 23.4548 52.7441 23.5644 53.0198 23.5644C53.2955 23.5644 53.5599 23.4548 53.7549 23.2599C53.9499 23.0649 54.0594 22.8005 54.0594 22.5248V18.5812C58.1043 23.2274 60.3214 29.1863 60.297 35.3465C60.297 40.4184 58.793 45.3763 55.9753 49.5933C53.1575 53.8104 49.1526 57.0972 44.4668 59.0381C39.7811 60.979 34.625 61.4868 29.6506 60.4974C24.6763 59.5079 20.107 57.0656 16.5207 53.4793C12.9344 49.893 10.4921 45.3237 9.50262 40.3493C8.51316 35.375 9.02098 30.2189 10.9619 25.5332C12.9028 20.8474 16.1896 16.8424 20.4066 14.0247C24.6237 11.2069 29.5816 9.70297 34.6534 9.70297C34.9292 9.70297 35.1936 9.59344 35.3886 9.39848C35.5835 9.20352 35.6931 8.93909 35.6931 8.66337C35.6931 8.38765 35.5835 8.12322 35.3886 7.92826C35.1936 7.73329 34.9292 7.62376 34.6534 7.62376C29.1704 7.62376 23.8105 9.24968 19.2515 12.2959C14.6925 15.3421 11.1392 19.6718 9.04095 24.7375C6.94268 29.8032 6.39367 35.3773 7.46336 40.755C8.53305 46.1327 11.1734 51.0724 15.0505 54.9495C18.9276 58.8266 23.8673 61.4669 29.245 62.5366C34.6227 63.6063 40.1968 63.0573 45.2625 60.959C50.3282 58.8608 54.6579 55.3075 57.7041 50.7485C60.7503 46.1895 62.3762 40.8296 62.3762 35.3465C62.4017 28.4135 59.8018 21.7279 55.099 16.6337Z" fill="white"/>
<path d="M15.9406 35.6931C15.9406 39.4627 17.0584 43.1476 19.1526 46.2819C21.2469 49.4162 24.2236 51.8591 27.7062 53.3017C31.1889 54.7442 35.0211 55.1217 38.7183 54.3863C42.4154 53.6508 45.8115 51.8356 48.477 49.1701C51.1425 46.5046 52.9577 43.1085 53.6931 39.4114C54.4286 35.7142 54.0511 31.882 52.6086 28.3994C51.166 24.9167 48.7231 21.94 45.5888 19.8458C42.4545 17.7515 38.7696 16.6337 35 16.6337C29.9468 16.6392 25.1021 18.649 21.529 22.2221C17.9559 25.7953 15.9461 30.6399 15.9406 35.6931ZM51.9802 35.6931C51.9802 39.0514 50.9843 42.3344 49.1185 45.1268C47.2527 47.9191 44.6007 50.0955 41.498 51.3807C38.3953 52.6659 34.9811 53.0022 31.6873 52.347C28.3935 51.6918 25.3679 50.0746 22.9931 47.6999C20.6184 45.3252 19.0012 42.2996 18.346 39.0057C17.6908 35.7119 18.0271 32.2978 19.3123 29.195C20.5975 26.0923 22.7739 23.4404 25.5663 21.5746C28.3586 19.7087 31.6416 18.7129 35 18.7129C39.5017 18.7184 43.8175 20.5091 47.0007 23.6923C50.1839 26.8756 51.9747 31.1913 51.9802 35.6931Z" fill="white"/>
<path d="M33.9604 23.9109V35.6931C33.9606 35.8986 34.0217 36.0994 34.1359 36.2702C34.2502 36.441 34.4125 36.5741 34.6023 36.6527C34.7922 36.7313 35.0011 36.7519 35.2026 36.7118C35.4042 36.6718 35.5893 36.5729 35.7347 36.4277L44.7446 27.4178C44.9282 27.2208 45.0282 26.9601 45.0235 26.6908C45.0187 26.4214 44.9096 26.1645 44.7191 25.974C44.5287 25.7835 44.2717 25.6744 44.0024 25.6697C43.733 25.6649 43.4724 25.7649 43.2753 25.9485L36.0397 33.1842V23.9109C36.0397 23.6352 35.9301 23.3707 35.7352 23.1758C35.5402 22.9808 35.2758 22.8713 35.0001 22.8713C34.7243 22.8713 34.4599 22.9808 34.2649 23.1758C34.07 23.3707 33.9604 23.6352 33.9604 23.9109Z" fill="white"/>
</svg>
